<svg id="Capa_1" enable-background="new 0 0 512 512" height="512" viewBox="0 0 512 512" width="512" xmlns="http://www.w3.org/2000/svg"><g><g><path d="m414.71 59.66c4.142 0 7.5-3.357 7.5-7.5v-37.66c0-7.995-6.505-14.5-14.5-14.5h-303.42c-7.995 0-14.5 6.505-14.5 14.5v177.5c0 7.995 6.505 14.5 14.5 14.5h1.71v11h-1.71c-7.995 0-14.5 6.505-14.5 14.5v144.92c0 4.143 3.358 7.5 7.5 7.5s7.5-3.357 7.5-7.5v-144.42h11.935v20.5c0 7.444 6.056 13.5 13.5 13.5h143.108c7.444 0 13.5-6.056 13.5-13.5v-20.5h120.376v264.5h-302.419v-85.08c0-4.143-3.358-7.5-7.5-7.5s-7.5 3.357-7.5 7.5v85.58c0 7.995 6.505 14.5 14.5 14.5h303.42c7.995 0 14.5-6.505 14.5-14.5v-265.5c0-7.995-6.505-14.5-14.5-14.5h-1.71v-11h1.71c7.995 0 14.5-6.505 14.5-14.5v-104.84c0-4.143-3.358-7.5-7.5-7.5s-7.5 3.357-7.5 7.5v104.34c-13.834 0-277.699 0-293.71 0h-8.71v-176.5h302.42v37.16c0 4.143 3.358 7.5 7.5 7.5zm-142.877 191.84h-140.108v-19h140.108zm119.167-45v11c-11.939 0-258.549 0-270 0v-11z"/><path d="m119.56 69.971v66.559c0 12.62 10.268 22.888 22.888 22.888s22.887-10.268 22.887-22.888v-66.559c0-12.62-10.267-22.888-22.887-22.888s-22.888 10.268-22.888 22.888zm30.774 0v66.559c0 4.35-3.538 7.888-7.887 7.888s-7.888-3.538-7.888-7.888v-66.559c0-4.35 3.539-7.888 7.888-7.888s7.887 3.538 7.887 7.888z"/></g></g></svg>