<?xml version="1.0"?>
<svg xmlns="http://www.w3.org/2000/svg" id="Outline" viewBox="0 0 512 512" width="512" height="512"><path d="M375.99,152a8.084,8.084,0,0,0,1-.063c13.492-1.686,39.008-12.3,39.008-40.382,0-8.62,3.742-14.9,11.441-19.207a39.492,39.492,0,0,1,13.364-4.39,8,8,0,0,0-1.579-15.921C425.658,73.357,400,83.313,400,111.556c0,8.7-3.791,15.148-11.59,19.723a40.666,40.666,0,0,1-13.4,4.783A8,8,0,0,0,375.99,152Z"/><path d="M16.051,208.507a7.9,7.9,0,0,0,.188,1.289l23.711,102.9L29.893,495.561A8,8,0,0,0,37.881,504H474.119a8,8,0,0,0,7.988-8.439L472.05,312.692l23.711-102.9a7.9,7.9,0,0,0,.188-1.289,23.847,23.847,0,0,0-12.919-22.859,25.73,25.73,0,0,0-3.03-1.339V80A71.986,71.986,0,0,0,342.144,50.948a72.011,72.011,0,0,0-72.076-2.466,71.986,71.986,0,0,0-122.422,24.87A49.286,49.286,0,0,0,136.048,72a48.415,48.415,0,0,0-15.718,2.53l15.388-56.425A8,8,0,0,0,128,8H88a8,8,0,0,0-7.718,5.9l-7.555,27.7-1.009-3.7A8,8,0,0,0,64,32H24a8,8,0,0,0-7.718,10.1l22.853,83.8c-5.532,16.49-9.125,38.005-5.878,57.987a25.4,25.4,0,0,0-4.287,1.759A23.847,23.847,0,0,0,16.051,208.507ZM352,80a56,56,0,0,1,112,0V183.992a24.867,24.867,0,0,0-7.6,4.1,8.553,8.553,0,0,1-11.279-.607L434.783,177.3a24.631,24.631,0,0,0-34.427,0l-9.116,8.983a8.564,8.564,0,0,1-11.968,0l-9.117-8.983A24.455,24.455,0,0,0,352,170.331ZM216,40a56.146,56.146,0,0,1,45.657,23.6,8,8,0,0,0,11,1.989,56.012,56.012,0,0,1,64.554,1.329A72,72,0,0,0,336,80v55.98a79.983,79.983,0,0,0-99.5,2.837,134.879,134.879,0,0,0-6.277-20.087c-5.795-14.276-14.159-22.592-24.86-24.716-9.727-1.931-18.768,1.872-25.133,5.889a55.643,55.643,0,0,0-17.839-20.095A56.081,56.081,0,0,1,216,40ZM336,157.694v19.365c-.088.084-.184.155-.271.241l-9.117,8.983a8.564,8.564,0,0,1-11.968,0l-9.117-8.983a24.63,24.63,0,0,0-34.426,0l-9.117,8.983a8.564,8.564,0,0,1-11.968,0L240.9,177.3a24.248,24.248,0,0,0-10.128-5.975A63.99,63.99,0,0,1,336,157.694ZM94.11,24h23.416L100.035,88.134A59.194,59.194,0,0,0,91.776,99.9c-1.157-.73-2.406-1.453-3.729-2.136L81.02,72Zm-4.663,94.307a8,8,0,0,0,13.424-3.521c.072-.267,7.548-26.786,33.177-26.786,25.287,0,32.784,25.724,33.081,26.786a8,8,0,0,0,13.424,3.521c2.671-2.714,12.021-10.125,19.691-8.6,5.084,1.009,9.508,6.069,13.15,15.04a122.492,122.492,0,0,1,7.568,28.672,79.627,79.627,0,0,0-10.228,19.436,24.218,24.218,0,0,0-6.261,4.444l-9.117,8.983a8.557,8.557,0,0,1-8.446,2.077c3.812-30.047-4.363-47.143-4.732-47.893a8,8,0,0,0-14.385,7.006c.057.121,4.535,9.914,4.1,27.8a24.634,24.634,0,0,0-32.044,2.031l-9.117,8.983a8.564,8.564,0,0,1-11.968,0l-9.116-8.983a24.319,24.319,0,0,0-12.811-6.61c.491-14.766,4.221-22.892,4.348-23.164a8,8,0,0,0-14.336-7.1c-.263.526-5.934,12.139-6.062,32.791a24.239,24.239,0,0,0-5.566,4.087L66.883,187.482a8.553,8.553,0,0,1-11.279.607,24.973,24.973,0,0,0-5.947-3.482c-4.4-20.5.523-44.027,6.949-59.859,3.634-8.951,8.046-14.008,13.115-15.033C77.332,108.173,86.555,115.41,89.447,118.307ZM34.474,48H57.89L70.311,93.547a26.993,26.993,0,0,0-3.67.467c-6.448,1.28-12.04,4.824-16.74,10.549Zm1.932,151.815a8.448,8.448,0,0,1,9.294.841,24.581,24.581,0,0,0,32.412-1.777L88.446,188.7a8.562,8.562,0,0,1,11.968,0l9.117,8.982a24.63,24.63,0,0,0,34.427,0l9.116-8.982a8.562,8.562,0,0,1,11.968,0l9.117,8.982a24.629,24.629,0,0,0,34.426,0L217.7,188.7a8.562,8.562,0,0,1,11.968,0l9.117,8.982a24.629,24.629,0,0,0,34.426,0l9.117-8.982a8.562,8.562,0,0,1,11.968,0l9.117,8.982a24.629,24.629,0,0,0,34.426,0l9.117-8.982a8.562,8.562,0,0,1,11.968,0l9.116,8.982a24.63,24.63,0,0,0,34.427,0l9.117-8.982a8.562,8.562,0,0,1,11.968,0l10.334,10.181a24.581,24.581,0,0,0,32.412,1.777,8.448,8.448,0,0,1,9.294-.841A8.048,8.048,0,0,1,480,206.94L456.2,310.2a8.035,8.035,0,0,0-.192,2.235L465.667,488H46.333l9.655-175.561A8.035,8.035,0,0,0,55.8,310.2L32,206.94A8.048,8.048,0,0,1,36.406,199.815Z"/><path d="M192,312H320a8,8,0,0,0,8-8V256a8,8,0,0,0-8-8H192a8,8,0,0,0-8,8v48A8,8,0,0,0,192,312Zm8-48H312v32H200Z"/></svg>
